<svg version="1.1" id="Layer_1" xmlns="http://www.w3.org/2000/svg" xmlns:xlink="http://www.w3.org/1999/xlink" x="0px" y="0px"
	 width="100%" viewBox="0 0 1024 1024" enable-background="new 0 0 1024 1024" xml:space="preserve">
<path fill="#000000" opacity="1.000000" stroke="none" 
	d="
M445.289612,372.246460 
	C475.120392,355.555481 504.626190,339.042816 534.131531,322.529236 
	C534.567566,322.285187 534.993591,322.023102 535.430054,321.779816 
	C543.128662,317.489197 543.084351,317.534210 549.202148,323.642548 
	C572.664246,347.068359 596.106262,370.514954 619.701416,393.806244 
	C622.799255,396.864227 624.166687,399.953705 624.153503,404.308838 
	C624.023865,447.129883 624.066284,489.951477 624.065857,532.772888 
	C624.065796,539.962158 624.079224,539.963989 631.262085,539.976135 
	C636.760559,539.985474 642.260071,539.927490 647.757019,540.022278 
	C650.479614,540.069214 653.985535,539.401978 653.864868,543.816772 
	C653.752686,547.924255 650.408875,547.159424 647.886108,547.162476 
	C615.895081,547.201294 583.903809,547.231812 551.912903,547.162292 
	C537.547546,547.131042 539.703247,548.815979 539.684326,535.064026 
	C539.610352,481.245758 539.653931,427.427307 539.607300,373.608948 
	C539.605347,371.355988 540.205444,368.970520 538.491943,366.161926 
	C532.406677,369.483734 526.338257,372.753632 520.310608,376.097198 
	C512.154846,380.621246 504.120270,385.374634 495.849609,389.675659 
	C492.390350,391.474579 491.280884,393.694153 491.290100,397.526337 
	C491.404297,445.012817 491.350800,492.499695 491.340210,539.986450 
	C491.338593,547.170288 491.337921,547.183350 484.294373,547.190125 
	C468.132202,547.205688 451.967834,547.062744 435.809174,547.304993 
	C431.125275,547.375183 429.792511,545.687378 429.807556,541.204285 
	C429.938202,502.215546 429.941833,463.226044 429.836243,424.237183 
	C429.824799,420.016022 431.391815,417.665955 435.078369,415.629272 
	C468.462280,397.185669 501.717896,378.509888 535.087341,360.040070 
	C538.448975,358.179413 539.848389,355.997284 539.721741,352.151520 
	C539.470459,344.521149 539.647461,336.876648 539.647461,329.383057 
	C536.909973,328.149170 535.357483,329.857574 533.748230,330.751953 
	C493.714020,353.002350 453.735657,375.353424 413.666901,397.541321 
	C410.247986,399.434479 409.178772,401.678619 409.189331,405.463379 
	C409.312073,449.450836 409.287903,493.438782 409.268799,537.426575 
	C409.264099,548.255798 410.245178,547.167664 399.735413,547.207642 
	C392.404236,547.235596 385.072662,547.235352 377.741699,547.185547 
	C375.297791,547.168945 372.351501,547.642456 372.334320,543.802429 
	C372.316620,539.844360 375.264343,539.980774 377.985199,539.970581 
	C384.150055,539.947510 390.330750,539.693726 396.475006,540.050354 
	C401.260468,540.328064 402.769226,538.740356 402.750763,533.874756 
	C402.586456,490.554077 402.783020,447.231750 402.516174,403.912079 
	C402.479553,397.971283 404.052063,394.671204 409.513947,391.926910 
	C421.556854,385.876068 433.173798,378.977386 445.289612,372.246460 
M616.807251,527.479736 
	C616.808655,486.991882 616.799683,446.504059 616.832275,406.016235 
	C616.834778,402.959686 616.636169,400.271423 614.178101,397.842865 
	C592.963623,376.883270 571.876343,355.795074 550.700500,334.796265 
	C549.645508,333.750061 548.812561,331.957214 546.575989,332.444305 
	C546.501404,333.306519 546.369507,334.120331 546.369385,334.934113 
	C546.356689,401.580658 546.382019,468.227264 546.281616,534.873657 
	C546.275574,538.850159 547.658936,540.085327 551.499512,540.055969 
	C569.493042,539.918213 587.488464,540.041687 605.482544,539.952759 
	C618.748901,539.887207 616.553772,541.464539 616.807251,527.479736 
M439.097137,539.706116 
	C452.246674,539.798401 465.400665,539.722961 478.543365,540.071960 
	C483.285858,540.197937 484.856110,538.765076 484.838531,533.893921 
	C484.679718,489.932770 484.761841,445.970795 484.716705,402.009064 
	C484.714966,400.327942 485.489075,398.343353 483.436768,396.760315 
	C481.446686,397.829956 479.394165,398.899017 477.373383,400.025024 
	C465.596466,406.587372 453.905945,413.311432 442.006805,419.643677 
	C438.447723,421.537720 437.020905,423.681244 437.038544,427.762115 
	C437.191071,463.064087 437.125885,498.366943 437.167633,533.669495 
	C437.169922,535.600098 436.641541,537.714722 439.097137,539.706116 
z"/>
<path fill="#000000" opacity="1.000000" stroke="none" 
	d="
M667.969849,551.104187 
	C671.460815,551.131653 674.459595,551.109070 677.454895,551.200867 
	C679.846375,551.274109 681.780640,552.043579 681.704224,554.937622 
	C681.630981,557.714783 679.617249,557.993408 677.500549,558.036133 
	C675.502563,558.076416 673.503601,558.078735 671.505066,558.078918 
	C565.243103,558.086853 458.981110,558.093567 352.719147,558.091980 
	C350.890015,558.091980 349.053040,558.072998 347.233978,557.906738 
	C345.447510,557.743408 344.709412,556.588257 344.676392,554.825317 
	C344.640961,552.931641 345.168243,551.497375 347.278442,551.275940 
	C348.764557,551.119995 350.267487,551.065613 351.762878,551.066101 
	C390.403442,551.078491 429.044006,551.114441 467.684570,551.123230 
	C489.823090,551.128235 511.973663,550.616760 534.097656,551.175659 
	C578.564514,552.298889 623.017639,550.533813 667.969849,551.104187 
z"/>
<path fill="#000000" opacity="1.000000" stroke="none" 
	d="
M435.645447,619.692749 
	C437.412872,616.256287 439.385071,613.289001 440.563293,610.034302 
	C442.224121,605.446411 445.651978,605.179626 449.417633,605.835632 
	C453.348816,606.520386 452.072723,609.950989 452.104340,612.338745 
	C452.240723,622.652771 452.146210,632.969849 452.152252,643.285767 
	C452.153839,645.949402 452.031586,648.223450 448.322449,648.315369 
	C444.496368,648.410034 444.553894,646.160522 444.573730,643.459961 
	C444.626160,636.327271 444.788940,629.184387 443.829681,621.298950 
	C439.658203,627.433960 437.317535,633.730103 434.292511,639.655884 
	C433.235565,641.726379 432.490356,644.069580 429.509308,644.039429 
	C426.544281,644.009399 425.778900,641.665649 424.763733,639.584656 
	C421.864136,633.640564 418.974121,627.691833 414.972809,621.914734 
	C414.972809,628.940186 415.024780,635.966248 414.940765,642.990723 
	C414.915955,645.064331 415.260040,647.584778 412.268707,648.141785 
	C408.465515,648.849854 406.759216,647.352417 406.815125,643.324585 
	C406.965088,632.511414 406.844238,621.694824 406.923584,610.880188 
	C406.938477,608.849060 406.375549,606.053894 409.529907,605.846069 
	C412.332886,605.661438 415.634430,604.508484 417.451752,608.167725 
	C420.336304,613.975891 423.274292,619.757568 426.216736,625.536682 
	C427.108826,627.288818 428.090302,628.995422 429.249115,631.123779 
	C432.565735,627.711548 433.386017,623.495422 435.645447,619.692749 
z"/>
<path fill="#000000" opacity="1.000000" stroke="none" 
	d="
M540.085815,648.296692 
	C532.004272,648.245728 532.001221,648.245728 531.995544,640.515137 
	C531.988342,630.706177 532.094666,620.895447 531.931030,611.089111 
	C531.863647,607.053833 533.279358,605.343750 537.454346,605.611694 
	C541.759155,605.888000 546.095642,605.659607 550.418213,605.673889 
	C555.931885,605.692017 561.232910,606.436707 564.078979,611.974792 
	C566.764221,617.199829 564.626160,621.585510 560.655334,625.533752 
	C563.095337,627.833557 565.647095,629.701782 566.337280,633.083618 
	C568.000244,641.231995 563.180176,647.402954 554.031433,648.142822 
	C549.569641,648.503662 545.059265,648.264221 540.085815,648.296692 
M552.683472,630.380737 
	C550.351929,630.330872 548.005127,630.431763 545.692200,630.198059 
	C541.628052,629.787292 540.069763,631.314148 540.171265,635.532166 
	C540.261536,639.286499 541.205994,641.230957 545.294434,640.790588 
	C547.438416,640.559631 549.627014,640.780273 551.786865,640.651550 
	C554.845459,640.469177 557.506104,639.325500 558.094482,636.036438 
	C558.694702,632.681152 556.172852,631.408142 552.683472,630.380737 
M555.533508,614.795532 
	C552.680176,612.325073 549.220398,613.412781 545.985962,613.158081 
	C542.341858,612.871277 540.098633,613.583862 540.145142,618.178467 
	C540.191162,622.717712 542.642517,622.880615 545.898743,622.718628 
	C547.718994,622.628052 549.563110,622.809937 551.365051,622.599670 
	C555.673279,622.097229 556.945190,620.044312 555.533508,614.795532 
z"/>
<path fill="#000000" opacity="1.000000" stroke="none" 
	d="
M491.313843,641.875427 
	C491.359558,645.410706 491.761505,648.604126 486.987640,648.284729 
	C484.576813,648.123352 483.117310,647.221191 483.106812,644.771912 
	C483.056183,632.965088 483.052551,621.157898 483.104248,609.351135 
	C483.110626,607.892395 483.263885,606.138123 485.207733,605.870789 
	C488.032318,605.482422 490.820190,605.281677 492.866394,608.057983 
	C497.896912,614.883301 503.000305,621.655701 508.136322,628.402222 
	C509.284973,629.911011 510.023651,631.877319 512.664307,632.814636 
	C512.664307,625.245850 512.660706,617.988831 512.666138,610.731812 
	C512.668030,608.204895 512.372192,605.709717 516.272461,605.646851 
	C520.242126,605.582825 520.424927,607.884033 520.409363,610.811890 
	C520.352783,621.455688 520.424622,632.100281 520.334106,642.743652 
	C520.317261,644.728821 521.165100,647.415100 518.105103,648.081055 
	C515.194885,648.714355 512.619446,648.269043 510.643036,645.516235 
	C505.503632,638.357971 500.197144,631.319397 494.937286,624.247986 
	C494.161865,623.205566 493.277374,622.244263 491.313538,621.375854 
	C491.313538,628.048157 491.313538,634.720520 491.313843,641.875427 
z"/>
<path fill="#000000" opacity="1.000000" stroke="none" 
	d="
M715.687561,624.528381 
	C716.469421,638.112061 707.753357,647.820312 694.741394,648.240234 
	C690.089905,648.390320 685.426819,648.174744 680.774719,648.314270 
	C677.720154,648.405884 676.070984,647.387573 676.087097,644.104248 
	C676.143555,632.630676 676.093140,621.156616 676.164978,609.683228 
	C676.176392,607.865234 676.372620,605.753540 678.955811,605.769165 
	C685.756348,605.810181 692.634827,604.833435 699.339172,606.277466 
	C708.737366,608.301697 714.064575,614.418823 715.687561,624.528381 
M702.389709,615.987793 
	C697.761108,612.286682 692.318787,613.174438 687.029297,613.311890 
	C684.463562,613.378540 684.324585,615.303528 684.325500,617.235840 
	C684.328796,623.733032 684.417908,630.231873 684.298828,636.726807 
	C684.242004,639.824707 685.644287,640.924927 688.540222,640.731201 
	C689.867126,640.642517 691.207642,640.658203 692.537048,640.724854 
	C698.815186,641.039307 703.738892,638.706848 706.327209,632.871460 
	C709.036865,626.762512 707.822510,621.163452 702.389709,615.987793 
z"/>
<path fill="#000000" opacity="1.000000" stroke="none" 
	d="
M367.068298,605.664551 
	C372.046265,605.743652 376.614410,605.320190 381.011932,606.000244 
	C392.501678,607.777039 399.121948,616.525330 398.463837,628.336426 
	C397.841675,639.503235 389.946960,647.533508 378.636108,648.190002 
	C373.658173,648.478943 368.646271,648.136169 363.659088,648.325562 
	C359.895111,648.468567 358.741058,646.764343 358.788513,643.220459 
	C358.922333,633.234192 358.817657,623.244995 358.844604,613.257019 
	C358.865021,605.703735 358.890778,605.703796 367.068298,605.664551 
M371.772003,640.710144 
	C373.764282,640.699463 375.762482,640.783752 377.747711,640.660217 
	C383.440582,640.306030 387.396545,637.398193 389.544342,632.159973 
	C391.656677,627.008118 390.287384,620.673828 386.426422,616.965942 
	C383.050446,613.723816 372.946503,611.735718 368.993683,613.446594 
	C367.441925,614.118286 367.326416,615.365112 367.323853,616.714600 
	C367.310974,623.521790 367.360352,630.329285 367.299591,637.135925 
	C367.276978,639.672729 368.392517,640.823486 371.772003,640.710144 
z"/>
<path fill="#000000" opacity="1.000000" stroke="none" 
	d="
M319.165955,642.028625 
	C317.547241,647.280945 314.794495,649.817566 309.428406,647.620789 
	C308.357239,646.083374 309.399109,644.737244 309.962250,643.446899 
	C314.883484,632.169922 319.906006,620.936951 324.801575,609.648865 
	C325.891022,607.136841 327.192230,605.602600 330.276947,605.592224 
	C333.346466,605.581909 335.209534,606.532837 336.440857,609.405334 
	C341.484741,621.172119 346.668243,632.878967 351.795654,644.609985 
	C352.203064,645.542114 352.460480,646.497681 351.846710,647.755310 
	C347.490692,649.090820 343.898895,648.694031 342.429443,643.301086 
	C341.493958,639.867859 339.141571,638.691833 335.650665,638.903442 
	C331.838287,639.134521 328.002014,638.989380 324.176300,638.976257 
	C322.039001,638.968933 320.202759,639.440308 319.165955,642.028625 
M325.691406,630.671631 
	C329.108459,631.172974 332.512726,631.397339 336.371765,630.258545 
	C335.064484,625.257935 333.183319,620.766235 330.352295,615.492737 
	C328.401276,621.159546 324.927002,625.006470 325.691406,630.671631 
z"/>
<path fill="#000000" opacity="1.000000" stroke="none" 
	d="
M604.624084,616.023193 
	C604.630188,613.531372 604.708008,611.529663 604.624817,609.534607 
	C604.510498,606.791260 605.705994,605.658813 608.476013,605.667725 
	C611.222595,605.676636 612.406189,606.783020 612.376038,609.529297 
	C612.288208,617.523376 612.606567,625.535461 612.176392,633.508667 
	C611.697998,642.375610 604.177734,648.300537 594.132507,648.391357 
	C583.038208,648.491699 575.793945,642.645996 575.081116,632.244324 
	C574.569885,624.783569 574.967285,617.261475 574.930115,609.766907 
	C574.915771,606.879700 576.144165,605.602600 579.173279,605.645325 
	C582.195496,605.687988 583.327454,606.954102 583.295715,609.872803 
	C583.223206,616.534607 583.240784,623.198486 583.316284,629.860474 
	C583.389282,636.293701 586.512329,640.165710 591.940491,640.754211 
	C598.813904,641.499390 602.686340,638.757080 604.125061,631.957336 
	C605.205017,626.853333 604.389465,621.662109 604.624084,616.023193 
z"/>
<path fill="#000000" opacity="1.000000" stroke="none" 
	d="
M651.200745,618.019470 
	C651.199890,624.160034 651.418396,629.816223 651.126892,635.445923 
	C650.906982,639.691040 652.615723,641.067505 656.634399,640.744812 
	C659.602417,640.506470 662.606934,640.744507 665.594971,640.727661 
	C668.170227,640.713135 669.098816,642.139526 669.100586,644.508484 
	C669.102417,646.901855 668.117126,648.256592 665.559204,648.248108 
	C659.250671,648.227112 652.941833,648.223267 646.633606,648.272644 
	C643.896118,648.294067 642.760620,646.980164 642.768555,644.312073 
	C642.802917,632.690735 642.813599,621.069092 642.768982,609.447815 
	C642.758301,606.661621 644.046387,605.675293 646.734802,605.655701 
	C649.532593,605.635315 651.223999,606.460205 651.174194,609.555298 
	C651.131470,612.210571 651.188232,614.867493 651.200745,618.019470 
z"/>
<path fill="#000000" opacity="1.000000" stroke="none" 
	d="
M383.528870,674.132080 
	C386.004120,678.682800 388.237274,682.916382 390.798096,687.771118 
	C393.877655,684.051819 395.315308,680.182434 397.117188,676.555908 
	C398.318604,674.137878 399.665588,672.199219 402.774200,672.838928 
	C406.235229,673.551147 405.179565,676.391418 405.226624,678.503296 
	C405.352783,684.162292 405.267792,689.826782 405.217590,695.488647 
	C405.202576,697.180420 405.138947,698.998535 402.790192,699.120056 
	C400.172119,699.255493 399.890991,697.368469 399.864502,695.436768 
	C399.816650,691.953247 399.850952,688.468506 398.978119,684.674561 
	C397.611694,687.389099 396.268219,690.115479 394.870209,692.813599 
	C394.047028,694.402344 393.529602,696.372986 391.227600,696.463135 
	C388.577454,696.567017 388.155273,694.285461 387.275635,692.579956 
	C385.911163,689.934448 384.649048,687.236084 382.270081,684.623535 
	C382.270081,688.300110 382.294312,691.976929 382.259521,695.653137 
	C382.242920,697.409851 381.960968,699.088440 379.664398,699.148499 
	C377.387665,699.208069 376.907013,697.619080 376.897949,695.818298 
	C376.865234,689.324158 376.651642,682.817810 376.974152,676.339417 
	C377.204651,671.709473 380.169098,672.152527 383.528870,674.132080 
z"/>
<path fill="#000000" opacity="1.000000" stroke="none" 
	d="
M433.938843,691.872742 
	C433.939117,686.905396 433.868683,682.419495 433.974457,677.937866 
	C434.018829,676.058228 433.472687,673.682556 436.099976,672.945374 
	C438.614258,672.239929 440.091919,673.860779 441.446045,675.677856 
	C444.484711,679.755310 447.576355,683.793213 451.809326,687.551575 
	C451.809326,684.150879 451.765350,680.749329 451.826172,677.349670 
	C451.861511,675.376282 451.679718,673.042053 454.557678,672.924988 
	C457.625305,672.800232 457.282928,675.225708 457.297760,677.161316 
	C457.343506,683.139832 457.346222,689.119446 457.280396,695.097595 
	C457.263214,696.657166 457.727844,698.618042 455.413544,699.136719 
	C453.407990,699.586121 451.884521,698.801086 450.679382,697.170288 
	C447.249268,692.529053 443.780273,687.916565 439.335571,683.489502 
	C439.335571,687.220764 439.412628,690.954224 439.302643,694.682251 
	C439.248627,696.513000 439.968170,699.086060 436.833557,699.134827 
	C433.905518,699.180420 434.101318,696.820740 433.966614,694.846497 
	C433.910217,694.019531 433.945587,693.186340 433.938843,691.872742 
z"/>
<path fill="#000000" opacity="1.000000" stroke="none" 
	d="
M698.348511,689.312744 
	C698.305908,692.078186 698.300842,694.403137 698.208862,696.724731 
	C698.147095,698.284119 697.307800,699.157349 695.686035,699.159485 
	C694.089233,699.161621 693.064636,698.296082 693.049133,696.782349 
	C692.976196,689.647583 692.991089,682.511292 693.057373,675.376343 
	C693.068665,674.161011 693.734253,673.167664 695.102356,672.903564 
	C696.914001,672.553772 698.372864,673.117493 699.477356,674.583191 
	C701.974854,677.897400 704.463318,681.218445 706.956238,684.536011 
	C707.828369,685.696777 708.414429,687.143311 710.789978,687.879822 
	C710.789978,684.067627 710.752991,680.500916 710.805176,676.935547 
	C710.832153,675.089539 710.849609,673.030212 713.429138,672.933167 
	C716.444702,672.819641 716.259644,675.146545 716.273376,677.127747 
	C716.314880,683.105591 716.322388,689.084290 716.267395,695.061951 
	C716.252747,696.652161 716.568420,698.568359 714.335449,699.111450 
	C712.349243,699.594604 710.792114,698.890381 709.573242,697.244446 
	C706.148804,692.620056 702.685181,688.024658 699.069092,683.193481 
	C697.867371,685.288635 698.575256,687.132690 698.348511,689.312744 
z"/>
<path fill="#000000" opacity="1.000000" stroke="none" 
	d="
M367.317200,685.158569 
	C366.784851,694.614441 362.070984,699.267578 353.070190,699.295349 
	C341.088776,699.332336 342.843445,700.449585 342.697174,688.974792 
	C342.644226,684.819824 342.686829,680.663208 342.727722,676.507751 
	C342.742615,674.994324 342.876587,673.601257 344.689819,672.908752 
	C354.087219,669.319458 365.087860,675.037354 367.317200,685.158569 
M354.109802,678.132996 
	C349.453613,677.323181 347.654327,679.359619 348.228668,683.920227 
	C348.393402,685.228088 348.078247,686.602539 348.286926,687.897461 
	C348.651276,690.158142 346.900482,693.401794 350.170959,694.398804 
	C353.271515,695.344055 356.464752,694.500244 359.037140,692.299744 
	C361.568359,690.134644 362.217102,687.213989 361.505249,684.138611 
	C360.724731,680.766846 358.480408,678.689514 354.109802,678.132996 
z"/>
<path fill="#000000" opacity="1.000000" stroke="none" 
	d="
M543.076172,674.374023 
	C548.927307,671.785522 554.637817,671.945068 560.068665,674.447266 
	C564.288940,676.391785 566.095093,682.303894 563.179199,686.522400 
	C560.523193,690.365051 560.550720,693.228027 563.361877,696.559326 
	C563.729187,696.994568 563.689880,697.772949 563.856384,698.464966 
	C560.976868,699.994751 558.985962,699.301636 557.515747,696.669556 
	C556.867065,695.508240 556.141113,694.387207 555.401672,693.280273 
	C554.217407,691.507263 552.461609,691.303040 550.534668,691.561584 
	C548.164856,691.879517 548.382812,693.707214 548.284546,695.352051 
	C548.171631,697.244324 548.092407,699.181519 545.454407,699.154419 
	C542.796265,699.127136 542.740540,697.153320 542.746643,695.282043 
	C542.768860,688.459045 542.846008,681.636292 543.076172,674.374023 
M550.010742,686.548157 
	C551.487549,686.573608 552.985535,686.768127 554.436523,686.586975 
	C556.942139,686.274170 558.805542,685.142151 558.821289,682.213440 
	C558.837463,679.200928 556.994019,678.347168 554.383179,678.079529 
	C548.364807,677.462463 546.940796,679.691895 550.010742,686.548157 
z"/>
<path fill="#000000" opacity="1.000000" stroke="none" 
	d="
M682.379333,690.827698 
	C678.176086,701.297485 664.093689,701.571655 658.535278,694.862366 
	C654.447449,689.928040 654.044739,683.191467 657.773438,678.383484 
	C662.192200,672.685730 669.438416,671.136292 676.098022,674.465149 
	C681.952026,677.391418 684.319641,683.287842 682.379333,690.827698 
M667.984619,677.814026 
	C666.652832,678.460999 665.154419,678.898193 664.022583,679.796997 
	C661.333252,681.932678 660.239685,684.743713 661.120483,688.211914 
	C662.056458,691.897156 664.621399,693.901489 668.121277,694.485046 
	C671.557312,695.057922 674.355652,693.367615 676.245544,690.599487 
	C680.079346,684.984009 676.665955,679.241150 667.984619,677.814026 
z"/>
<path fill="#000000" opacity="1.000000" stroke="none" 
	d="
M622.798462,610.212769 
	C622.568176,606.293335 624.536316,605.609009 627.503723,605.656799 
	C630.794434,605.709900 631.254883,607.652405 631.248779,610.256592 
	C631.222534,621.404236 631.191589,632.552368 631.265503,643.699585 
	C631.285706,646.738220 630.340759,648.315918 626.990784,648.311523 
	C623.593872,648.307068 622.751038,646.619019 622.769043,643.631409 
	C622.835083,632.650391 622.792725,621.668762 622.798462,610.212769 
z"/>
<path fill="#000000" opacity="1.000000" stroke="none" 
	d="
M463.650940,638.946472 
	C463.649139,629.473511 463.617065,620.493286 463.666931,611.513611 
	C463.681976,608.803711 462.928528,605.710327 467.532410,605.630859 
	C472.299927,605.548584 471.890839,608.714233 471.906891,611.678528 
	C471.962830,621.988342 471.956268,632.298645 471.934998,642.608704 
	C471.929016,645.511780 472.006866,648.350342 467.662048,648.294861 
	C463.204010,648.237854 463.703369,645.253418 463.659363,642.432739 
	C463.643799,641.435181 463.653748,640.437256 463.650940,638.946472 
z"/>
<path fill="#000000" opacity="1.000000" stroke="none" 
	d="
M595.224609,687.874695 
	C596.736938,691.575195 598.109375,694.923523 599.538635,698.410522 
	C596.431152,699.980347 594.649414,699.290222 593.059021,696.660034 
	C590.197327,691.927429 581.447021,691.878601 578.716309,696.588196 
	C577.289307,699.049316 575.697021,699.905762 572.891541,698.665405 
	C572.554565,695.290161 574.725281,692.746277 575.872559,689.920349 
	C577.810730,685.146118 579.988403,680.468994 582.073914,675.754700 
	C582.859558,673.978882 583.923035,672.673584 586.167969,672.764343 
	C588.187866,672.846008 589.074158,674.088745 589.784729,675.683960 
	C591.544067,679.633484 593.317261,683.576721 595.224609,687.874695 
M589.089661,687.558838 
	C588.430237,685.199524 587.606934,682.924072 585.856873,680.634460 
	C584.114014,683.171875 582.962402,685.403198 582.834045,688.143860 
	C585.012268,688.869446 586.921387,689.057678 589.089661,687.558838 
z"/>
<path fill="#000000" opacity="1.000000" stroke="none" 
	d="
M503.949280,695.692749 
	C498.754730,700.051147 492.127563,700.504395 487.120514,697.207642 
	C485.457367,696.112610 484.117584,694.931946 485.317169,692.766968 
	C486.532013,690.574524 488.037720,691.593628 489.499878,692.505005 
	C489.922882,692.768738 490.337738,693.078003 490.800568,693.240234 
	C493.572632,694.211975 497.225769,696.249512 498.636292,692.530701 
	C500.024323,688.871277 495.632904,689.161743 493.470917,688.145142 
	C491.526398,687.230835 489.359833,686.767517 487.789917,685.139404 
	C484.734833,681.971069 485.120331,677.336121 488.670807,674.691101 
	C492.063782,672.163391 499.415192,672.063110 502.956207,674.386719 
	C504.277588,675.253845 504.787323,676.245667 504.216705,677.723572 
	C503.634521,679.231506 502.484314,679.755615 501.020599,679.224609 
	C499.120300,678.535217 497.207855,678.048645 495.180267,678.181580 
	C494.012054,678.258179 492.728973,678.318176 492.456146,679.804260 
	C492.200958,681.194336 493.169159,682.002014 494.250885,682.481689 
	C495.918335,683.221069 497.678040,683.749084 499.378204,684.418579 
	C504.992798,686.629517 506.207794,689.412659 503.949280,695.692749 
z"/>
<path fill="#000000" opacity="1.000000" stroke="none" 
	d="
M318.310547,693.411865 
	C315.485870,693.223938 313.701172,693.937439 312.832428,696.446594 
	C311.885254,699.182251 309.996155,699.933838 306.929321,698.444763 
	C307.596008,694.187744 310.015472,690.555603 311.611969,686.645874 
	C313.185486,682.792419 314.840363,678.956421 316.739655,675.256592 
	C318.390747,672.040344 321.891968,671.602112 323.337830,674.573120 
	C327.100555,682.304993 330.412506,690.256165 333.898193,698.106140 
	C331.236603,699.712341 328.882202,699.952881 328.134308,697.717712 
	C326.425812,692.611938 322.499878,693.416931 318.310547,693.411865 
M317.522034,685.652649 
	C317.372864,691.622314 320.956238,687.738342 323.502991,688.343750 
	C322.456146,685.324951 322.021729,682.812805 319.856445,680.624756 
	C319.036835,682.416870 318.432739,683.737671 317.522034,685.652649 
z"/>
<path fill="#000000" opacity="1.000000" stroke="none" 
	d="
M629.063477,675.890015 
	C629.337158,680.443481 628.818054,680.750366 624.561157,678.983154 
	C618.926392,676.643921 613.796875,678.547729 612.498474,683.627625 
	C611.664917,686.888855 612.285828,689.950989 614.953613,692.265381 
	C617.547119,694.515198 620.454773,695.259460 623.698608,693.656250 
	C624.293701,693.362122 624.914185,693.112244 625.484314,692.776367 
	C626.946960,691.914856 628.288391,691.735779 629.372742,693.345398 
	C630.582397,695.141052 629.283691,696.058716 628.075684,696.998230 
	C622.578613,701.273438 613.059143,699.755920 608.923950,693.947266 
	C604.680969,687.987183 606.054382,679.384766 612.051086,675.370605 
	C617.625183,671.639404 623.268005,671.815735 629.063477,675.890015 
z"/>
<path fill="#000000" opacity="1.000000" stroke="none" 
	d="
M513.102051,674.040161 
	C519.284790,671.720886 525.429138,673.043152 531.503418,672.838989 
	C533.053833,672.786804 533.976929,673.744385 533.965820,675.342957 
	C533.954285,677.018005 532.737122,677.831299 531.356750,677.765930 
	C526.262207,677.524597 525.871399,680.633362 526.041565,684.543030 
	C526.207336,688.353821 526.080505,692.181213 525.973145,695.998291 
	C525.922363,697.801880 525.299927,699.281799 523.033203,699.144165 
	C520.982422,699.019592 520.713562,697.569153 520.690674,695.991516 
	C520.630554,691.840149 520.597656,687.688232 520.585999,683.536438 
	C520.577026,680.368286 519.794861,677.982849 515.925903,677.934082 
	C513.825562,677.907654 512.426758,676.895081 513.102051,674.040161 
z"/>
<path fill="#000000" opacity="1.000000" stroke="none" 
	d="
M472.972290,698.935303 
	C469.796722,699.476501 469.038574,697.823547 469.024689,695.540894 
	C468.986359,689.241211 468.963531,682.940979 469.002472,676.641418 
	C469.014221,674.741821 469.319275,672.881409 471.867432,672.827087 
	C474.658417,672.767578 474.588104,674.806091 474.434692,676.632629 
	C473.815765,684.000549 475.645721,691.482727 472.972290,698.935303 
z"/>
<path fill="#000000" opacity="1.000000" stroke="none" 
	d="
M416.865173,686.001221 
	C416.893127,682.342529 416.869781,679.177063 416.972534,676.015625 
	C417.033112,674.152649 417.794403,672.794373 419.988739,672.882874 
	C422.093933,672.967834 422.296967,674.483276 422.302643,676.039062 
	C422.326904,682.700623 422.321472,689.362549 422.285706,696.024048 
	C422.277252,697.599976 421.993225,699.073608 419.913849,699.149353 
	C417.701569,699.229980 417.001801,697.864502 416.958038,695.988220 
	C416.884308,692.825195 416.892883,689.660217 416.865173,686.001221 
z"/>
<path fill="#000000" opacity="1.000000" stroke="none" 
	d="
M645.329224,680.097534 
	C645.325317,685.213867 645.386536,689.844177 645.284119,694.470886 
	C645.240173,696.455627 645.976379,699.284119 642.532837,699.118225 
	C639.324463,698.963684 639.896851,696.240906 639.863159,694.212952 
	C639.772644,688.758911 639.774719,683.302002 639.844055,677.847473 
	C639.870117,675.797607 639.355835,673.087769 642.538574,672.953125 
	C645.939148,672.809265 645.115295,675.632263 645.311523,677.627319 
	C645.375977,678.282471 645.325745,678.948853 645.329224,680.097534 
z"/>
<path fill="#000000" opacity="1.000000" stroke="none" 
	d="
M557.181763,404.832458 
	C551.774841,400.087311 551.317871,393.946442 551.221863,387.793030 
	C551.019470,374.813812 550.984802,361.831940 550.911743,348.850952 
	C550.903381,347.366577 550.923279,345.819458 552.338440,344.837006 
	C554.595154,344.488037 555.683228,346.201630 556.928528,347.438660 
	C573.690491,364.089417 590.216858,380.984711 607.269226,397.331635 
	C612.575439,402.418427 612.777222,407.907532 611.818481,414.136322 
	C611.416016,416.750977 610.647644,419.309357 609.961426,422.254700 
	C607.764832,420.498535 608.270874,416.679962 605.140564,416.484253 
	C602.398499,416.312775 601.074280,419.139038 598.810791,420.214783 
	C597.441711,419.373535 598.723877,418.485443 598.777039,417.667511 
	C599.076965,413.047852 598.257446,409.518158 594.250732,405.941925 
	C589.869202,402.031158 585.047363,397.821350 583.087158,391.698883 
	C582.077454,388.545166 580.431458,385.704041 576.744202,385.479828 
	C573.247375,385.267181 571.683105,388.204620 569.888184,390.593536 
	C567.561523,393.690125 567.679199,397.515900 566.784973,401.027405 
	C564.928345,408.318726 564.033569,408.760773 557.181763,404.832458 
z"/>
<path fill="#000000" opacity="1.000000" stroke="none" 
	d="
M608.862793,503.542023 
	C609.253052,502.425690 609.369690,501.366272 610.371033,501.349884 
	C611.715820,501.327911 611.838379,502.553864 611.874695,503.501404 
	C611.982910,506.329681 611.988586,509.162689 611.993225,511.993896 
	C612.002869,517.824890 612.038452,523.656677 611.953430,529.486511 
	C611.919800,531.787659 613.339722,534.868774 609.775940,535.768066 
	C606.690674,536.546631 604.219360,535.397583 602.815918,531.887573 
	C608.421448,527.714539 607.969299,521.437683 608.020264,515.327942 
	C608.052185,511.502472 607.678589,507.655792 608.862793,503.542023 
z"/>
<path fill="#000000" opacity="1.000000" stroke="none" 
	d="
M597.355225,519.479126 
	C601.849304,521.302002 601.849304,521.302002 601.978455,526.648315 
	C599.796082,524.191650 595.398987,524.099548 597.355225,519.479126 
z"/>
</svg>